<?xml version="1.0" standalone="no"?>
<!DOCTYPE svg PUBLIC "-//W3C//DTD SVG 20010904//EN"
 "http://www.w3.org/TR/2001/REC-SVG-20010904/DTD/svg10.dtd">
<svg version="1.0" xmlns="http://www.w3.org/2000/svg"
 width="225.000000pt" height="225.000000pt" viewBox="0 0 225.000000 225.000000"
 preserveAspectRatio="xMidYMid meet">
<metadata>
Created by potrace 1.15, written by Peter Selinger 2001-2017
</metadata>
<g transform="translate(0.000000,225.000000) scale(0.100000,-0.100000)"
fill="#000000" stroke="none">
<path d="M1042 1883 c-81 -48 -203 -175 -267 -277 -42 -68 -49 -85 -49 -133
-1 -48 -5 -60 -33 -90 -86 -91 -60 -247 61 -362 l55 -51 -47 -1 c-26 -1 -110
-4 -187 -8 l-140 -6 113 -49 c61 -27 112 -51 112 -53 0 -2 -32 -83 -71 -179
-40 -96 -70 -176 -68 -179 10 -9 965 -6 990 3 110 43 179 201 135 307 -17 41
-30 31 129 100 61 26 114 51 119 56 6 5 -79 9 -208 9 l-219 0 65 64 c72 69
108 143 108 218 0 50 -33 123 -66 145 -21 13 -24 23 -24 72 0 53 -4 64 -59
148 -94 142 -263 285 -352 299 -27 4 -47 -3 -97 -33z m187 -324 c77 -17 141
-50 141 -70 0 -15 -8 -19 -32 -19 -18 -1 -44 -7 -58 -15 -24 -14 -23 -14 28
-15 45 0 82 -10 101 -26 2 -2 -8 -19 -23 -39 -25 -32 -26 -36 -12 -57 13 -21
13 -25 -4 -46 -16 -19 -23 -21 -39 -13 -25 14 -77 14 -102 1 -17 -10 -18 -13
-4 -26 25 -26 17 -43 -27 -55 -41 -11 -136 -8 -157 6 -17 10 -13 33 10 49 l21
14 -20 11 c-26 14 -78 14 -103 0 -37 -20 -78 38 -48 68 9 9 6 19 -10 41 -11
17 -21 35 -21 42 0 19 71 42 110 36 34 -5 35 -5 10 9 -14 8 -40 14 -57 15 -28
0 -33 4 -33 24 0 13 6 28 13 35 42 34 223 52 316 30z m-188 -465 c32 -34 106
-41 163 -16 40 18 47 26 60 69 8 26 15 41 16 33 1 -8 5 -36 9 -62 5 -33 4 -48
-3 -50 -6 0 -17 -2 -24 -2 -7 -1 -25 -21 -41 -45 -29 -43 -31 -44 -84 -46 -54
-1 -54 -1 -82 42 -16 25 -34 43 -45 43 -28 0 -32 14 -24 78 l7 57 14 -40 c7
-21 23 -49 34 -61z m-124 -277 c33 -86 34 -90 19 -130 -8 -23 -17 -53 -18 -67
-2 -18 -16 7 -48 87 -25 62 -48 109 -52 105 -3 -4 -18 -35 -31 -69 l-26 -63
54 0 c42 0 54 -4 58 -17 2 -10 8 -26 12 -35 6 -16 -1 -18 -73 -18 -79 0 -80 0
-92 -30 -11 -27 -17 -30 -56 -30 -24 0 -44 3 -44 8 0 4 29 78 64 164 l65 157
-42 15 c-42 15 -41 15 67 13 l109 -2 34 -88z m351 80 c8 -10 5 -20 -12 -41
-22 -28 -24 -29 -120 -27 -62 1 -103 -2 -111 -9 -9 -8 -29 -9 -54 -5 l-41 7
15 28 c28 54 48 60 186 60 91 0 130 -4 137 -13z m333 -8 c-30 -10 -56 -21 -59
-23 -2 -3 5 -17 17 -32 55 -70 46 -179 -21 -241 -30 -29 -89 -53 -128 -53 -62
0 -136 45 -166 102 -13 25 -12 27 25 45 l38 19 16 -28 c48 -83 177 -46 177 51
0 47 -21 77 -64 91 -48 15 -97 -6 -119 -52 -30 -63 -49 -72 -160 -79 -81 -5
-103 -9 -114 -24 -7 -11 -13 -22 -13 -27 0 -4 43 -8 96 -8 l96 0 40 -40 40
-40 -187 0 -188 0 6 62 c6 64 23 97 71 132 22 17 45 22 125 24 l97 4 24 44
c14 28 39 54 64 69 39 24 49 25 191 24 l150 0 -54 -20z"/>
</g>
</svg>
